<?xml version="1.0" standalone="no"?>
<!DOCTYPE svg PUBLIC "-//W3C//DTD SVG 20010904//EN"
 "http://www.w3.org/TR/2001/REC-SVG-20010904/DTD/svg10.dtd">
<svg version="1.0" xmlns="http://www.w3.org/2000/svg"
 width="640.000000pt" height="400.000000pt" viewBox="0 0 640.000000 400.000000"
 preserveAspectRatio="xMidYMid meet">
<metadata>
Created by potrace 1.14, written by Peter Selinger 2001-2017
</metadata>
<g transform="translate(0.000000,400.000000) scale(0.100000,-0.100000)"
fill="#000000" stroke="none">
<path d="M0 2755 l0 -1245 43 5 c80 8 679 52 684 51 1 -1 4 -93 7 -206 4 -113
8 -239 11 -280 3 -41 8 -187 12 -325 3 -137 7 -261 7 -275 1 -25 2 -26 51 -19
27 3 74 6 103 5 l53 -1 -5 180 c-3 99 -8 297 -11 440 -3 143 -8 307 -10 365
-2 58 -1 110 3 115 4 6 28 11 55 12 l47 2 1 -142 c0 -78 2 -167 4 -197 4 -60
14 -539 15 -688 0 -51 4 -91 8 -88 5 3 50 6 100 7 l92 2 1 76 c1 42 1 79 1 82
-1 4 -4 220 -8 480 l-7 474 81 -1 c45 0 84 -3 86 -5 6 -6 15 -480 16 -794 1
-148 3 -279 6 -290 4 -16 12 -20 47 -18 23 1 66 2 95 2 l52 1 0 554 0 553 48
-1 47 -1 5 -555 5 -555 25 0 c14 1 40 -3 58 -9 23 -7 36 -6 40 1 10 15 61 22
66 9 4 -9 6 264 8 994 0 58 2 110 5 116 3 8 122 10 446 7 443 -4 497 -9 497
-40 0 -7 8 -13 18 -13 13 0 14 2 4 9 -10 6 -5 11 18 19 17 7 45 26 61 43 16
17 26 23 22 14 -4 -13 -3 -16 6 -11 6 4 9 16 6 27 -4 11 -2 19 6 19 8 0 8 4
-1 15 -11 13 -10 14 4 9 10 -4 24 2 37 17 16 19 15 15 -4 -16 -14 -22 -28 -55
-31 -74 l-6 -35 32 49 c18 27 34 43 36 35 3 -7 -3 -17 -12 -22 -9 -5 -16 -14
-16 -19 0 -6 5 -7 10 -4 6 3 10 -4 10 -16 0 -18 4 -15 26 17 33 49 33 49 41
41 3 -4 -2 -14 -13 -21 -15 -12 -17 -17 -6 -27 10 -11 12 -10 12 4 0 9 5 17
10 17 7 0 7 -7 0 -21 -9 -16 -14 -18 -25 -9 -20 17 -37 -21 -35 -78 0 -26 1
-59 0 -74 0 -32 2 -33 35 -12 22 14 26 14 40 1 13 -14 13 -16 -3 -20 -14 -4
-14 -5 3 -6 16 -1 17 -3 6 -10 -17 -11 -43 -3 -35 10 3 5 0 9 -5 9 -6 0 -11
-4 -11 -10 0 -5 -7 -10 -15 -10 -30 0 -7 -33 27 -39 20 -4 118 -52 118 -57 0
-6 -33 0 -63 12 -20 7 -26 -22 -14 -60 8 -24 7 -32 -8 -43 -11 -7 -14 -13 -7
-13 6 0 9 -7 6 -15 -5 -12 -1 -13 25 -4 49 17 60 3 14 -17 -30 -14 -43 -25
-43 -40 0 -16 -12 -24 -64 -38 l-64 -19 -6 -45 c-10 -76 -16 -72 89 -72 l95 0
1 33 c0 30 1 31 11 10 10 -20 25 -26 63 -26 6 0 20 3 33 7 16 6 22 3 22 -8 0
-14 16 -16 100 -16 l100 0 0 30 0 30 -62 1 c-92 2 -122 -2 -130 -14 -4 -6 -9
0 -13 15 -4 15 -3 33 1 40 5 7 7 21 6 31 -2 11 3 17 17 17 30 0 35 17 9 32
-13 7 -27 11 -31 10 -5 -1 -5 3 -1 9 3 6 2 14 -4 18 -16 10 -3 51 14 44 8 -3
14 1 14 10 0 21 17 31 26 16 5 -8 3 -9 -6 -4 -10 6 -12 4 -7 -8 3 -10 2 -17
-3 -17 -15 0 -12 -36 4 -49 11 -10 17 -8 25 6 10 17 10 16 11 -4 0 -30 12 -35
50 -22 22 8 30 17 27 28 -2 9 2 22 10 29 41 39 -16 102 -84 93 -7 -1 -13 3
-13 9 0 5 6 10 14 10 8 0 18 5 22 11 4 7 0 9 -12 6 -70 -20 -83 -19 -95 7 -7
14 -15 23 -19 21 -4 -3 -10 6 -12 20 -6 28 12 47 57 63 l30 10 -27 1 c-15 1
-30 -4 -33 -9 -14 -22 -51 -10 -62 20 -6 16 -7 32 -3 35 5 3 6 13 3 22 -4 9
-2 14 3 11 5 -3 25 0 44 8 19 7 29 13 22 13 -10 1 -9 5 3 18 10 9 15 26 12 40
-3 18 -1 21 9 12 13 -11 29 -65 25 -86 -4 -22 31 -14 36 8 l6 20 22 -21 22
-21 6 23 6 22 24 -22 24 -23 5 24 c3 18 -3 34 -24 55 -41 45 -34 52 10 10 36
-36 39 -37 137 -43 55 -3 192 -13 305 -22 113 -8 248 -18 300 -22 l95 -6 -1
-40 c-2 -82 -15 -311 -19 -335 -2 -14 -7 -90 -10 -170 -4 -80 -8 -161 -10
-180 -2 -19 -7 -95 -11 -169 -7 -133 -6 -134 15 -128 14 3 21 0 21 -9 0 -17
95 -20 105 -4 4 6 14 9 23 8 19 -3 25 63 62 737 6 105 13 209 16 233 l5 42 45
0 44 0 0 -37 c0 -32 -13 -241 -35 -558 -6 -96 -13 -194 -21 -332 l-6 -103 71
0 c43 0 71 4 71 11 0 5 10 9 23 7 19 -3 22 2 24 32 2 19 10 127 18 240 8 113
17 259 20 325 3 66 8 131 10 145 2 14 7 72 10 130 4 58 10 108 13 111 4 3 40
4 81 1 l73 -4 -6 -72 c-3 -39 -8 -109 -11 -156 -3 -47 -8 -110 -10 -140 -8
-109 -35 -496 -37 -552 l-3 -57 38 -7 c22 -3 63 -3 93 1 l54 6 1 42 c1 23 3
56 4 72 7 61 26 316 40 540 21 316 16 295 70 293 25 0 45 -6 45 -12 0 -21 -59
-812 -65 -872 l-6 -61 73 3 c54 3 68 2 53 -6 -18 -9 -17 -10 5 -5 14 2 32 5
40 5 9 0 16 10 17 23 1 12 9 114 18 227 8 113 17 239 20 280 3 41 8 98 11 125
2 28 8 99 13 158 5 60 11 110 13 112 2 2 109 -12 238 -31 129 -18 323 -45 430
-59 107 -14 210 -28 228 -31 l32 -6 0 1356 0 1356 -3200 0 -3200 0 0 -1245z
m1296 -660 c-13 -41 -12 -45 2 -46 15 -1 15 -2 0 -6 -9 -2 -20 -13 -23 -23 -9
-28 -45 -33 -55 -7 l-9 22 0 -21 c-1 -17 -9 -22 -43 -27 -23 -3 -50 -1 -59 4
-11 5 -19 5 -21 -1 -4 -13 -48 -1 -48 14 0 20 37 36 63 27 20 -8 23 -6 23 12
-1 14 8 26 22 32 12 5 22 13 22 16 0 4 -10 5 -22 2 -21 -4 -22 -3 -5 10 9 8
17 19 17 26 0 7 25 11 75 11 l74 0 -13 -45z m662 -12 c-3 -53 -1 -58 17 -55
18 2 19 2 2 -8 -9 -6 -15 -15 -12 -21 4 -5 0 -9 -7 -10 -7 0 -53 -1 -103 -2
-86 -2 -90 -1 -93 21 -3 16 2 22 16 22 14 0 22 10 27 33 4 17 7 38 6 44 -1 9
7 11 29 7 23 -5 30 -3 30 10 0 12 10 16 46 16 l45 0 -3 -57z m842 29 c0 -7 4
-11 9 -8 5 3 11 -3 14 -14 3 -11 1 -23 -4 -26 -5 -3 -9 1 -9 9 0 9 -12 13 -35
13 -28 -1 -35 -5 -32 -17 3 -10 -5 -22 -19 -29 -19 -11 -27 -10 -41 1 -16 12
-17 12 -6 -2 13 -16 8 -29 -9 -29 -5 0 -6 5 -3 10 4 6 -14 9 -47 9 -29 -1 -43
-4 -30 -6 12 -2 22 -11 22 -19 0 -10 -5 -12 -12 -7 -7 4 -39 6 -71 5 -47 -3
-58 -1 -64 14 -4 10 -2 19 5 22 7 2 10 8 6 13 -8 14 50 11 65 -3 11 -11 13
-10 8 4 -4 12 0 15 18 13 14 -1 22 1 20 5 -3 5 -1 19 5 32 9 22 9 21 8 -7 -1
-17 1 -36 6 -43 9 -14 36 -16 36 -2 0 6 12 10 26 10 21 0 24 3 15 13 -6 8 -8
17 -4 20 3 4 2 7 -3 7 -5 0 -18 -11 -28 -25 -10 -14 -24 -25 -30 -25 -6 0 -5
4 2 9 8 4 13 11 13 15 -7 50 -5 51 84 51 63 0 85 -3 85 -13z m2206 -36 c3 -9
14 -16 24 -16 10 0 21 -7 24 -16 3 -8 10 -13 15 -10 5 3 14 -1 20 -8 10 -12 3
-14 -46 -14 -32 0 -111 -3 -177 -6 -106 -6 -121 -10 -137 -29 -16 -20 -16 -23
-1 -28 13 -5 12 -7 -6 -11 -12 -4 -20 -2 -16 3 3 5 2 9 -3 9 -4 0 -14 12 -21
27 -15 34 -1 53 28 35 27 -17 35 -15 19 4 -12 15 -4 16 94 12 59 -2 107 -1
107 3 0 11 -26 29 -33 23 -3 -3 -10 3 -16 14 -9 18 -6 19 55 21 50 2 66 -1 70
-13z m-1086 -80 c0 -8 -7 -17 -16 -20 -8 -3 -12 -10 -9 -16 6 -10 -15 -13 -71
-10 -31 1 -54 -23 -34 -35 6 -4 10 -1 10 4 0 7 26 11 65 11 57 0 64 2 58 18
-4 9 6 4 21 -13 15 -16 25 -25 22 -18 -4 8 15 12 65 15 39 2 73 0 75 -3 4 -7
-92 -49 -112 -49 -8 0 -14 5 -14 10 0 6 -5 10 -11 10 -5 0 -8 -4 -4 -9 8 -15
-5 -19 -70 -22 -36 -2 -74 -11 -97 -23 l-38 -21 47 -5 c31 -3 49 -11 57 -24 6
-11 19 -28 29 -38 24 -26 18 -54 -11 -51 -13 2 -25 -4 -28 -12 -5 -12 -10 -12
-27 -3 -12 6 -34 11 -48 10 -22 -2 -29 4 -37 28 -6 16 -15 30 -21 30 -5 0 -12
13 -16 29 -3 16 -13 32 -21 35 -8 3 -14 12 -14 21 0 8 -8 15 -17 16 -11 0 -13
3 -6 6 10 3 9 8 -2 20 -33 33 -19 43 61 43 65 0 75 2 70 16 -3 8 -2 12 3 9 5
-3 12 -1 16 5 3 5 -1 10 -9 10 -9 0 -16 9 -16 20 0 18 7 20 75 20 57 0 75 -3
75 -14z m-1118 -73 c15 -41 24 -53 41 -54 17 -1 18 -2 5 -6 -21 -5 -24 -23 -5
-24 6 0 48 -2 92 -4 95 -4 105 -6 105 -17 0 -4 12 -8 28 -9 15 0 21 -3 12 -6
-8 -3 -24 -17 -35 -30 -19 -23 -30 -26 -105 -29 -234 -10 -234 -10 -252 8 -22
22 -25 22 -31 -1 -4 -17 -14 -19 -88 -18 l-84 2 -3 38 c-4 46 -22 49 -22 3 0
-25 -5 -36 -17 -39 -31 -9 -151 -8 -156 0 -11 17 -16 83 -7 83 5 0 10 33 12
73 l3 72 78 3 77 3 0 -66 c0 -39 4 -65 11 -65 5 0 7 -5 3 -12 -4 -6 -3 -8 4
-4 6 3 9 16 6 29 -2 12 -7 43 -10 70 l-7 47 76 0 c62 0 78 -3 86 -17 10 -17
10 -17 11 -1 0 14 10 17 56 17 30 -1 58 2 62 5 16 16 36 -3 54 -51z m693 -83
c-6 -29 6 -42 20 -20 10 16 25 11 25 -8 0 -25 -19 -42 -49 -43 -24 -1 -23 -2
7 -11 31 -11 42 -31 22 -43 -15 -9 -1 -27 16 -21 9 4 14 -2 14 -17 0 -20 -5
-18 -39 18 -29 32 -43 39 -61 35 l-24 -6 25 -19 c14 -11 29 -27 33 -35 7 -12
-51 36 -74 61 -3 3 -13 9 -24 12 -18 7 -17 9 5 29 l24 21 -22 -6 c-21 -5 -23
-2 -21 34 1 31 5 39 20 39 10 0 18 -7 18 -15 0 -10 10 -15 30 -15 19 0 30 5
30 14 0 12 10 21 28 25 2 1 1 -12 -3 -29z m547 -28 c9 -9 3 -15 -23 -26 l-34
-15 53 -1 c46 0 54 -3 64 -25 16 -36 4 -41 -80 -37 -67 3 -74 6 -82 28 -5 13
-15 24 -22 25 -7 0 -2 5 12 12 l25 11 -32 4 c-61 6 -36 27 42 34 48 5 64 3 77
-10z"/>
</g>
</svg>
